<?xml version="1.0" encoding="utf-8"?>
<!-- Generator: Adobe Illustrator 19.0.1, SVG Export Plug-In . SVG Version: 6.00 Build 0)  -->
<!DOCTYPE svg PUBLIC "-//W3C//DTD SVG 1.1//EN" "http://www.w3.org/Graphics/SVG/1.1/DTD/svg11.dtd">
<svg version="1.1" id="Layer_1" xmlns="http://www.w3.org/2000/svg" xmlns:xlink="http://www.w3.org/1999/xlink" x="0px" y="0px"
	 viewBox="0 0 30 30" enable-background="new 0 0 30 30" xml:space="preserve">
<path fill="#d60670" d="M20.5,16h-11C8.7,16,8,15.3,8,14.5v0C8,13.7,8.7,13,9.5,13h11c0.8,0,1.5,0.7,1.5,1.5v0
	C22,15.3,21.3,16,20.5,16z"/>
<path fill="#d60670" d="M20.5,11h-11C8.7,11,8,10.3,8,9.5v0C8,8.7,8.7,8,9.5,8h11C21.3,8,22,8.7,22,9.5v0C22,10.3,21.3,11,20.5,11z"
	/>
<path fill="#d60670" d="M20.5,21h-11C8.7,21,8,20.3,8,19.5v0C8,18.7,8.7,18,9.5,18h11c0.8,0,1.5,0.7,1.5,1.5v0
	C22,20.3,21.3,21,20.5,21z"/>
</svg>
